<svg width="148" height="148" viewBox="0 0 148 148" fill="none" xmlns="http://www.w3.org/2000/svg">
<rect width="148" height="148" fill="#D9D9D9"/>
<path d="M32.168 59.4922H27.3047V60.5469H30.873C30.832 61.1035 30.7441 61.625 30.6094 62.123L26.7539 62.3633L26.918 63.4883L30.2168 63.1777C29.6016 64.4316 28.5059 65.4922 26.6719 66.3945L27.3867 67.3789C31.2891 65.4395 32.1621 62.6914 32.168 59.4922ZM33.6562 69.0195H34.957V63.6641H36.5273V62.5977H34.957V58.4492H33.6562V69.0195ZM40.8438 59.668H36.8828V66.6289H37.5742C39.1738 66.6289 40.1875 66.6113 41.4062 66.3711L41.2891 65.3281C40.252 65.5039 39.3848 65.5625 38.125 65.5801V63.5234H40.3984V62.5156H38.125V60.6992H40.8438V59.668ZM40.9141 63.418H42.2266V68.5273H43.4453V58.6602H42.2266V62.3633H40.9141V63.418ZM44.4062 69.043H45.6719V58.4492H44.4062V69.043ZM55.0508 59.4219H47.4102V60.4648H53.7383C53.7324 61.7363 53.7324 63.2422 53.3164 65.3047L54.6289 65.4453C55.0391 63.2305 55.0391 61.7598 55.0508 60.4414V59.4219ZM46.4023 67.6719H56.0586V66.6055H51.2539V62.9258H49.9648V66.6055H46.4023V67.6719ZM65.0977 58.4492H63.8086V69.0547H65.0977V58.4492ZM56.8477 60.4297H60.5156V62.3164H56.8594V66.5469H57.7852C59.6895 66.5527 61.2715 66.4824 63.0703 66.1719L62.9531 65.1055C61.3008 65.3809 59.8652 65.4688 58.1953 65.4805V63.3477H61.8398V59.375H56.8477V60.4297ZM74.4102 59.2344H69.0078V60.3125H73.127C73.1152 60.9629 73.0742 61.7773 72.8633 62.8672L74.1523 62.9844C74.3984 61.6426 74.3984 60.5879 74.4102 59.8672V59.2344ZM68.375 63.8281L68.4922 64.8711C70.3496 64.8652 72.8516 64.8242 75.0547 64.4258L74.9844 63.4883C73.959 63.6348 72.834 63.7168 71.7383 63.7637V61.6484H70.4492V63.8047C69.7051 63.8164 69.002 63.8223 68.375 63.8281ZM69.957 68.832H77.2812V67.7773H71.2695V65.6797H69.957V68.832ZM75.6055 66.3828H76.9414V62.8438H78.3125V61.7539H76.9414V58.4492H75.6055V66.3828ZM83.4258 59.1875H78.7617V60.2305H82.1133V61.4961H78.7734V64.918H79.5703C81.5156 64.9238 82.6699 64.8887 84.0352 64.6602L83.8945 63.5938C82.7109 63.7988 81.6914 63.8574 80.0859 63.875V62.4805H83.4258V59.1875ZM80.2031 68.8086H87.5156V67.7422H81.5039V65.6797H80.2031V68.8086ZM84.082 63.5586H85.9336V66.2656H87.2344V58.4609H85.9336V60.125H84.082V61.168H85.9336V62.5039H84.082V63.5586ZM101.355 59.4805H93.9492V60.5352H100.055V60.6758C100.055 62.0527 100.055 63.5879 99.6445 65.668L100.969 65.7852C101.355 63.5527 101.355 62.0938 101.355 60.6758V59.4805ZM92.9297 67.5898H102.586V66.5234H92.9297V67.5898ZM107.113 59.5273H103.105V60.582H105.859V62.4219H103.117V66.6289H103.844C105.156 66.623 106.316 66.5879 107.746 66.3477L107.652 65.293C106.469 65.4863 105.443 65.5273 104.371 65.5391V63.4766H107.113V59.5273ZM108.285 68.5039H109.48V63.5703H110.676V69.043H111.918V58.4492H110.676V62.5156H109.48V58.6484H108.285V68.5039ZM118.883 59.2461H113.129V60.3125H114.055V63.3418C113.633 63.3418 113.229 63.3477 112.848 63.3477L112.988 64.4258C114.84 64.4199 117.26 64.3789 119.41 64.0508L119.328 63.0898C118.877 63.1367 118.408 63.1777 117.934 63.2129V60.3125H118.883V59.2461ZM114.266 66.418H120.184V69.043H121.496V65.3633H114.266V66.418ZM115.309 63.3184V60.3125H116.691V63.2773C116.229 63.2949 115.766 63.3125 115.309 63.3184ZM120.184 64.918H121.496V58.4492H120.184V64.918Z" fill="black"/>
</svg>
