<svg width="390" height="76" viewBox="0 0 390 76" fill="none" xmlns="http://www.w3.org/2000/svg">
<rect width="390" height="76" fill="white"/>
<rect x="53" y="14" width="285" height="48" rx="24" fill="#FF6C3D"/>
<path d="M162.688 31.2188H160.766V36.6094H159.469V31.5938H157.609V44.8125H159.469V38.2031H160.766V45.4375H162.688V31.2188ZM150.25 41.1406L151.406 42.5156C155.414 40.1875 156.602 36.9375 156.609 32.9688H150.969V34.5625H154.664C154.398 37.3516 153.148 39.4375 150.25 41.1406ZM176.156 31.2344H174.156V41.4531H176.156V31.2344ZM164.469 35.7188C164.469 37.8359 166.172 39.3281 168.359 39.3281C170.539 39.3281 172.242 37.8359 172.25 35.7188C172.242 33.6328 170.539 32.1328 168.359 32.1406C166.172 32.1328 164.469 33.6328 164.469 35.7188ZM166.422 35.7188C166.406 34.5625 167.242 33.8672 168.359 33.875C169.438 33.8672 170.273 34.5625 170.281 35.7188C170.273 36.9062 169.438 37.5938 168.359 37.5938C167.242 37.5938 166.406 36.9062 166.422 35.7188ZM166.625 45.1875H176.531V43.5938H168.641V40.4219H166.625V45.1875ZM193.75 31.2188H191.766V33H189.078C189.141 32.6094 189.172 32.1953 189.172 31.7656H182.734V33.375H186.961C186.695 35.0859 185.195 36.4375 181.938 37.0781L182.609 38.7031C185.758 38.0156 187.789 36.6484 188.672 34.5156H191.766V35.7656H188.516V37.2812H191.766V38.375H193.75V31.2188ZM184.297 40.4531H191.75V41.3125H184.312V45.2969H194.062V43.7188H186.312V42.7812H193.75V38.8906H184.297V40.4531ZM203.594 32.6406H196.219V34.2344H201.609C201.594 35.4922 201.562 37.0156 201.234 39.0781L203.203 39.2344C203.578 36.8672 203.578 35.1172 203.594 33.7812V32.6406ZM195.469 40.9375L195.656 42.5312C198.148 42.5469 201.367 42.4922 204.297 42L204.172 40.5156C202.859 40.6875 201.445 40.7891 200.047 40.8438V36.7188H198.078V40.9062C197.156 40.9297 196.266 40.9375 195.469 40.9375ZM204.844 45.4375H206.859V38.5938H208.797V36.9375H206.859V31.2188H204.844V45.4375ZM226.125 42.1562H220.578V39.5312H224.672V32.125H222.688V34.3281H216.484V32.125H214.484V39.5312H218.594V42.1562H213.109V43.7812H226.125V42.1562ZM216.484 37.9375V35.9219H222.688V37.9375H216.484ZM238.891 31.2188H236.875V45.4375H238.891V31.2188ZM226.984 41.4062L228.031 43C233.109 40.6016 234.617 37.0156 234.625 32.7031H227.75V34.2656H232.594C232.273 37.4219 230.656 39.6719 226.984 41.4062Z" fill="white"/>
</svg>
