<svg width="40" height="40" viewBox="0 0 40 40" fill="none" xmlns="http://www.w3.org/2000/svg">
<circle cx="20" cy="20" r="20" fill="#FF8159"/>
<path d="M13.8127 27.0961L14.4847 23.1361C16.0367 23.5041 17.3727 23.6881 18.4927 23.6881C19.6287 23.6881 20.5647 23.6401 21.3007 23.5441V22.3441L19.5007 22.1521C18.5087 22.0561 17.6847 21.9281 17.0287 21.7681C16.3727 21.6081 15.8447 21.4001 15.4447 21.1441C15.0607 20.8721 14.7887 20.5361 14.6287 20.1361C14.4687 19.7201 14.3887 19.2081 14.3887 18.6001C14.3887 18.5201 14.4047 17.9601 14.4367 16.9201C14.4847 15.8801 14.5487 14.3601 14.6287 12.3601H25.5487L25.1887 16.4881L19.5007 16.1521V17.3761L20.9167 17.5441C21.9727 17.6721 22.8527 17.8641 23.5567 18.1201C24.2607 18.3761 24.8287 18.7041 25.2607 19.1041C25.6927 19.4881 25.9967 19.9521 26.1727 20.4961C26.3647 21.0241 26.4607 21.6401 26.4607 22.3441C26.4607 23.3521 26.3247 24.2001 26.0527 24.8881C25.7807 25.5761 25.4607 26.1041 25.0927 26.4721C24.7727 26.7601 24.3887 26.9921 23.9407 27.1681C23.4927 27.3281 23.0127 27.4481 22.5007 27.5281C22.0047 27.6241 21.5007 27.6801 20.9887 27.6961C20.4767 27.7121 20.0127 27.7201 19.5967 27.7201C17.5487 27.7201 15.6207 27.5121 13.8127 27.0961Z" fill="white"/>
</svg>
