<svg width="40" height="40" viewBox="0 0 40 40" fill="none" xmlns="http://www.w3.org/2000/svg">
<circle cx="20" cy="20" r="20" fill="#EFC865"/>
<path d="M17.0526 18.12L21.1806 17.64V16.08C20.9406 16.048 20.6286 16.024 20.2446 16.008C19.8606 15.976 19.3966 15.96 18.8526 15.96C17.7966 15.96 16.4606 16.128 14.8446 16.464L14.2206 12.912C16.1886 12.304 18.0766 12 19.8846 12C20.6206 12 21.3486 12.024 22.0686 12.072C22.8046 12.12 23.4606 12.272 24.0366 12.528C24.6126 12.768 25.0766 13.144 25.4286 13.656C25.7806 14.168 25.9566 14.888 25.9566 15.816C25.9566 17.416 25.2926 18.568 23.9646 19.272V19.392C25.5486 20.032 26.3406 21.224 26.3406 22.968C26.3406 24.088 26.1326 24.968 25.7166 25.608C25.3166 26.232 24.7806 26.704 24.1086 27.024C23.4366 27.344 22.6766 27.536 21.8286 27.6C20.9806 27.68 20.1246 27.72 19.2606 27.72C17.5166 27.72 15.7406 27.512 13.9326 27.096L14.6046 23.136C16.1566 23.504 17.4446 23.688 18.4686 23.688C19.5406 23.688 20.4446 23.64 21.1806 23.544V22.008L17.0526 21.6V18.12Z" fill="white"/>
</svg>
