<svg width="40" height="40" viewBox="0 0 40 40" fill="none" xmlns="http://www.w3.org/2000/svg">
<circle cx="20" cy="20" r="20" fill="#86BABA"/>
<path d="M14.6048 16.488L13.9808 12.912C16.0288 12.304 18.0368 12 20.0048 12C20.9328 12 21.7728 12.056 22.5248 12.168C23.2928 12.264 23.9488 12.48 24.4928 12.816C25.0368 13.136 25.4528 13.608 25.7408 14.232C26.0448 14.856 26.1968 15.696 26.1968 16.752C26.1968 17.536 26.1008 18.208 25.9088 18.768C25.7168 19.312 25.3648 19.808 24.8528 20.256C24.3408 20.704 23.6288 21.128 22.7168 21.528C21.8048 21.928 20.6288 22.368 19.1888 22.848V23.52H25.9568V27.36H13.6448V24.36C13.6448 23.912 13.6688 23.504 13.7168 23.136C13.7808 22.752 13.8848 22.392 14.0288 22.056C14.1888 21.72 14.3968 21.4 14.6528 21.096C14.9248 20.776 15.2608 20.448 15.6608 20.112C15.8848 19.92 16.1408 19.736 16.4288 19.56C16.7328 19.384 17.0528 19.216 17.3888 19.056C17.7408 18.88 18.0928 18.712 18.4448 18.552C18.8128 18.392 19.1568 18.24 19.4768 18.096C19.7968 17.952 20.0848 17.824 20.3408 17.712C20.5968 17.584 20.8288 17.472 21.0368 17.376V16.08C20.6688 16.048 20.3168 16.024 19.9808 16.008C19.6608 15.976 19.3488 15.96 19.0448 15.96C17.5408 15.96 16.0608 16.136 14.6048 16.488Z" fill="white"/>
</svg>
